<?xml version="1.0" encoding="UTF-8" standalone="no"?>
<svg
   width="2858.7937px"
   height="509.99994px"
   viewBox="0 0 2858.7937 509.99994"
   version="1.1"
   id="svg1"
   sodipodi:docname="Aegion Logo-dark.svg"
   inkscape:version="1.4.2 (ebf0e940, 2025-05-08)"
   xmlns:inkscape="http://www.inkscape.org/namespaces/inkscape"
   xmlns:sodipodi="http://sodipodi.sourceforge.net/DTD/sodipodi-0.dtd"
   xmlns:xlink="http://www.w3.org/1999/xlink"
   xmlns="http://www.w3.org/2000/svg"
   xmlns:svg="http://www.w3.org/2000/svg">
  <sodipodi:namedview
     id="namedview1"
     pagecolor="#ffffff"
     bordercolor="#000000"
     borderopacity="0.25"
     inkscape:showpageshadow="2"
     inkscape:pageopacity="0.0"
     inkscape:pagecheckerboard="0"
     inkscape:deskcolor="#d1d1d1"
     inkscape:zoom="0.050980398"
     inkscape:cx="1422.1152"
     inkscape:cy="254.99997"
     inkscape:window-width="896"
     inkscape:window-height="245"
     inkscape:window-x="0"
     inkscape:window-y="38"
     inkscape:window-maximized="0"
     inkscape:current-layer="Aegion-Dynamic" />
  <defs
     id="defs1">
    <path
       d="M0 0L500 0L500 500L0 500L0 0Z"
       id="path_1" />
    <clipPath
       id="mask_1">
      <use
         xlink:href="#path_1"
         id="use1" />
    </clipPath>
  </defs>
  <g
     id="icons8-siri-copy"
     transform="translate(0 5.003113)">
    <path
       d="M0 0L500 0L500 500L0 500L0 0Z"
       id="Background"
       fill="#FFFFFF"
       fill-opacity="0"
       fill-rule="evenodd"
       stroke="none" />
    <g
       clip-path="url(#mask_1)"
       id="g1">
      <path
         d="M250 20.2C123.093 20.2 20 123.293 20 250.2C20 377.107 123.093 480.2 250 480.2C376.907 480.2 480 377.107 480 250.2C480 123.293 376.907 20.2 250 20.2L250 20.2ZM280 210C326.667 210 361.696 233.198 389.688 257.539C403.683 269.709 415.715 282.068 426.602 291.816C427.902 292.981 429.142 294.022 430.41 295.137C420.863 298.411 411.995 302.953 403.438 307.793C402.86 307.405 402.386 307.072 401.797 306.68C382.535 293.838 357.381 280 320 280C289.865 280 264.196 291.591 240.488 306.113C232.04 300.073 223.498 293.641 214.785 287.031C201.312 276.81 187.401 266.351 172.754 257.207C204.345 230.801 235.679 210 280 210L280 210ZM90 250C106.559 250 122.231 254.318 137.441 261.113C110.826 284.254 84.3164 306.522 51.5234 318.672C45.6908 301.781 41.9642 283.915 40.625 265.371C50.0077 260.198 70.912 250 90 250L90 250ZM156.582 271.055C172.153 280.198 187.395 291.347 202.715 302.969C209.277 307.947 215.907 312.901 222.539 317.832C218.128 320.828 213.642 323.783 209.316 326.777C200.715 332.732 192.241 338.532 183.77 343.887C160.151 330.411 135.763 320 110 320C103.793 320 98.1501 320.286 92.793 320.703C116.547 306.247 136.873 288.276 156.582 271.055L156.582 271.055ZM320 300C348.694 300 367.361 308.746 383.887 319.102C364.449 330.351 345.159 340 320 340C299.319 340 279.293 331.212 258.984 318.516C278.373 307.606 298.149 300 320 300L320 300ZM239.922 330.273C252.539 338.817 265.526 346.235 279.121 351.582C265.644 358.857 252.989 368.819 240.84 379.355C234.071 375.207 227.281 370.999 220.41 366.582C214.564 362.824 208.634 359.098 202.715 355.371C208.761 351.341 214.807 347.291 220.684 343.223C227.158 338.74 233.54 334.465 239.922 330.273L239.922 330.273ZM402.559 331.445C412.864 338.512 423.407 345.04 435.664 348.105C433.037 353.073 430.133 357.857 427.129 362.578C426.614 363.146 424.389 365.584 419.531 369.902C414.201 369.637 398.891 363.277 381.445 355.801C376.904 353.855 372.146 351.891 367.207 350.02C378.697 345.214 389.129 339.318 398.828 333.613C400.113 332.858 401.296 332.188 402.559 331.445L402.559 331.445ZM110 340C126.831 340 144.632 346.4 163.027 355.781C146.176 364.328 128.855 370 110 370C84.4444 370 67.0703 352.93 67.0703 352.93L67.0312 352.969C65.7176 350.637 64.4878 348.265 63.2617 345.879C71.7753 343.276 86.474 340 110 340L110 340ZM320 360C337.5 360 356.372 366.835 373.555 374.199C382.729 378.131 391.055 382.275 399.121 385.371C380.24 397.598 353.025 410 320 410C300.785 410 280.331 401.815 259.141 390.176C280.217 373.052 301.444 360 320 360L320 360ZM183.867 367.324C192.352 372.401 200.937 377.856 209.59 383.418C214.709 386.709 219.905 389.964 225.078 393.242C211.488 405.614 198.674 417.73 187.344 426.445C176.185 435.029 166.566 439.589 160.664 439.883C134.067 427.363 110.555 409.512 91.5039 387.578C97.2229 388.972 103.31 390 110 390C137.749 390 161.73 380.209 183.867 367.324L183.867 367.324ZM242.93 404.199C267.574 418.591 293.035 430 320 430C339.022 430 356.296 426.444 371.504 421.152C337.202 445.533 295.349 460 250 460C228.266 460 207.305 456.697 187.598 450.586C191.576 448.091 195.549 445.368 199.531 442.305C212.374 432.426 225.58 419.801 239.219 407.402C240.442 406.291 241.7 405.3 242.93 404.199L242.93 404.199Z"
         id="Shape"
         fill="#FF834F"
         fill-rule="evenodd"
         stroke="none" />
    </g>
  </g>
  <g
     id="Aegion-Dynamic"
     transform="translate(683.7937 102.79999)">
    <path
       d="M561.75 86.75Q551 86.75 544.25 80.5Q537.5 74.25 537.5 65Q537.5 55.75 544.25 49.5Q551 43.25 561.75 43.25Q572.5 43.25 579.25 49.25Q586 55.25 586 64.25Q586 74 579.25 80.375Q572.5 86.75 561.75 86.75ZM1989.5 86.75Q1978.75 86.75 1972 80.5Q1965.25 74.25 1965.25 65Q1965.25 55.75 1972 49.5Q1978.75 43.25 1989.5 43.25Q2000.25 43.25 2007 49.25Q2013.75 55.25 2013.75 64.25Q2013.75 74 2007 80.375Q2000.25 86.75 1989.5 86.75ZM136 202.5L54.75 202.5L39.25 240L-2.25 240L75.75 65L115.75 65L194 240L151.5 240L136 202.5ZM1107 65L1027.5 65L1027.5 240L1107 240Q1135.5 240 1157.38 229.125Q1179.25 218.25 1191.38 198.5Q1203.5 178.75 1203.5 152.5Q1203.5 126.25 1191.38 106.5Q1179.25 86.75 1157.38 75.875Q1135.5 65 1107 65ZM1146.88 192.125Q1131.25 206.75 1105 206.75L1068 206.75L1068 98.25L1105 98.25Q1131.25 98.25 1146.88 112.875Q1162.5 127.5 1162.5 152.5Q1162.5 177.5 1146.88 192.125ZM341.25 173.25Q341.25 174 340.5 183.75L238.75 183.75Q241.5 196.25 251.75 203.5Q262 210.75 277.25 210.75Q287.75 210.75 295.875 207.625Q304 204.5 311 197.75L331.75 220.25Q312.75 242 276.25 242Q253.5 242 236 233.125Q218.5 224.25 209 208.5Q199.5 192.75 199.5 172.75Q199.5 153 208.875 137.125Q218.25 121.25 234.625 112.375Q251 103.5 271.25 103.5Q291 103.5 307 112Q323 120.5 332.125 136.375Q341.25 152.25 341.25 173.25ZM506 217.5L506 105.5L469 105.5L469 122.75Q453.75 103.5 424.5 103.5Q406 103.5 390.625 111.625Q375.25 119.75 366.25 134.5Q357.25 149.25 357.25 168.5Q357.25 187.75 366.25 202.5Q375.25 217.25 390.625 225.375Q406 233.5 424.5 233.5Q451.75 233.5 467 216.75L467 222.5Q467 241 457.375 250.125Q447.75 259.25 427.5 259.25Q414.5 259.25 401.5 255.125Q388.5 251 380 244L364.5 272Q376 281 393.5 285.75Q411 290.5 430.5 290.5Q467.5 290.5 486.75 272.5Q506 254.5 506 217.5ZM643.375 233.125Q660.25 242 681.5 242Q702.75 242 719.5 233.125Q736.25 224.25 745.75 208.5Q755.25 192.75 755.25 172.75Q755.25 152.75 745.75 137Q736.25 121.25 719.5 112.375Q702.75 103.5 681.5 103.5Q660.25 103.5 643.375 112.375Q626.5 121.25 617 137Q607.5 152.75 607.5 172.75Q607.5 192.75 617 208.5Q626.5 224.25 643.375 233.125ZM863 103.5Q888 103.5 903.375 118.5Q918.75 133.5 918.75 163L918.75 240L879.75 240L879.75 169Q879.75 153 872.75 145.125Q865.75 137.25 852.5 137.25Q837.75 137.25 829 146.375Q820.25 155.5 820.25 173.5L820.25 240L781.25 240L781.25 105.5L818.5 105.5L818.5 121.25Q826.25 112.75 837.75 108.125Q849.25 103.5 863 103.5ZM1502.88 118.5Q1487.5 103.5 1462.5 103.5Q1448.75 103.5 1437.25 108.125Q1425.75 112.75 1418 121.25L1418 105.5L1380.75 105.5L1380.75 240L1419.75 240L1419.75 173.5Q1419.75 155.5 1428.5 146.375Q1437.25 137.25 1452 137.25Q1465.25 137.25 1472.25 145.125Q1479.25 153 1479.25 169L1479.25 240L1518.25 240L1518.25 163Q1518.25 133.5 1502.88 118.5ZM1607.75 103.5Q1639 103.5 1655.75 118.375Q1672.5 133.25 1672.5 163.25L1672.5 240L1636 240L1636 223.25Q1625 242 1595 242Q1579.5 242 1568.12 236.75Q1556.75 231.5 1550.75 222.25Q1544.75 213 1544.75 201.25Q1544.75 182.5 1558.88 171.75Q1573 161 1602.5 161L1633.5 161Q1633.5 148.25 1625.75 141.375Q1618 134.5 1602.5 134.5Q1591.75 134.5 1581.38 137.875Q1571 141.25 1563.75 147L1549.75 119.75Q1560.75 112 1576.12 107.75Q1591.5 103.5 1607.75 103.5ZM1920.12 118.375Q1905.25 103.5 1880 103.5Q1865 103.5 1852.38 109.25Q1839.75 115 1831.5 125.5Q1824.5 114.75 1813 109.125Q1801.5 103.5 1787.25 103.5Q1774.25 103.5 1763.38 108Q1752.5 112.5 1745 121L1745 105.5L1707.75 105.5L1707.75 240L1746.75 240L1746.75 172.5Q1746.75 155 1754.75 146.125Q1762.75 137.25 1776.25 137.25Q1801.75 137.25 1801.75 169L1801.75 240L1840.75 240L1840.75 172.5Q1840.75 155 1848.75 146.125Q1856.75 137.25 1870.5 137.25Q1882.75 137.25 1889.38 145.125Q1896 153 1896 169L1896 240L1935 240L1935 163Q1935 133.25 1920.12 118.375ZM2071.62 233.125Q2088.75 242 2110.25 242Q2131.5 242 2147.38 233Q2163.25 224 2170.5 208L2140.25 191.5Q2130 210 2110 210Q2094.75 210 2084.75 200Q2074.75 190 2074.75 172.75Q2074.75 155.5 2084.75 145.5Q2094.75 135.5 2110 135.5Q2129.75 135.5 2140.25 154L2170.5 137.75Q2163.25 121.25 2147.38 112.375Q2131.5 103.5 2110.25 103.5Q2088.75 103.5 2071.62 112.375Q2054.5 121.25 2044.88 137Q2035.25 152.75 2035.25 172.75Q2035.25 192.75 2044.88 208.5Q2054.5 224.25 2071.62 233.125ZM123.25 171.75L95.5 104.75L67.75 171.75L123.25 171.75ZM1364.75 105.5L1304 248.25Q1294.75 271.5 1281.12 281Q1267.5 290.5 1248.25 290.5Q1237.75 290.5 1227.5 287.25Q1217.25 284 1210.75 278.25L1225 250.5Q1229.5 254.5 1235.38 256.75Q1241.25 259 1247 259Q1255 259 1260 255.125Q1265 251.25 1269 242.25L1269.5 241L1211.25 105.5L1251.5 105.5L1289.25 196.75L1327.25 105.5L1364.75 105.5ZM542.25 105.5L581.25 105.5L581.25 240L542.25 240L542.25 105.5ZM271.5 133Q258.25 133 249.25 140.5Q240.25 148 238.25 161L304.5 161Q302.5 148.25 293.5 140.625Q284.5 133 271.5 133ZM457.625 192.375Q447.75 201.5 432.25 201.5Q416.75 201.5 406.75 192.375Q396.75 183.25 396.75 168.5Q396.75 153.75 406.75 144.625Q416.75 135.5 432.25 135.5Q447.75 135.5 457.625 144.625Q467.5 153.75 467.5 168.5Q467.5 183.25 457.625 192.375ZM1970 105.5L2009 105.5L2009 240L1970 240L1970 105.5ZM706.125 199.875Q696.5 210 681.5 210Q666.5 210 656.75 199.875Q647 189.75 647 172.75Q647 155.75 656.75 145.625Q666.5 135.5 681.5 135.5Q696.5 135.5 706.125 145.625Q715.75 155.75 715.75 172.75Q715.75 189.75 706.125 199.875ZM1604.75 215.75Q1614.75 215.75 1622.5 211.125Q1630.25 206.5 1633.5 197.5L1633.5 183.75L1606.75 183.75Q1582.75 183.75 1582.75 199.5Q1582.75 207 1588.62 211.375Q1594.5 215.75 1604.75 215.75Z"
       id="path1"
       style="fill:#ffffff" />
  </g>
  <path
     d="M1772 870.2L1772 1370.2"
     id="Line"
     fill="none"
     fill-rule="evenodd"
     stroke="#000000"
     stroke-width="10"
     stroke-linecap="square" />
</svg>
